<?xml version="1.0" encoding="utf-8"?>
<!-- Generator: Adobe Illustrator 23.1.1, SVG Export Plug-In . SVG Version: 6.00 Build 0)  -->
<svg version="1.1" id="Laag_1" xmlns="http://www.w3.org/2000/svg" xmlns:xlink="http://www.w3.org/1999/xlink" x="0px" y="0px"
	 viewBox="0 0 852.9 135.8" style="enable-background:new 0 0 852.9 135.8;" xml:space="preserve">
<style type="text/css">
	.st0{fill:#FFFFFF;}
</style>
<g>
	<path class="st0" d="M433.8,61.6c0-8.9-7.2-16.1-16.1-16.1h-21.4v47h8.3V77.6h12.6l6.9,14.9h9.5l-7.9-16.9
		C430.5,72.9,433.8,67.6,433.8,61.6z M417.7,69.1h-13.2V54.2h13.2c4.1,0,7.5,3.3,7.5,7.5C425.2,65.8,421.8,69.1,417.7,69.1z"/>
	<path class="st0" d="M540.8,45.6h-21.4v47h8.3V77.7h13.1c8.9,0,16.1-7.2,16.1-16.1l0,0C556.9,52.8,549.6,45.6,540.8,45.6z
		 M540.8,69.1h-13.2V54.2h13.2c4.1,0,7.5,3.3,7.5,7.5C548.2,65.8,544.9,69.1,540.8,69.1z"/>
	<path class="st0" d="M254.3,85.1c-8.6,0-15.1-6.9-15.1-16s6.5-16,15.1-16c4.9,0,9.6,2.3,12.6,6.3l5.8-5.6
		c-4.5-5.7-11.2-8.9-18.4-8.9c-13.1,0-23.8,10.9-23.8,24.4s10.7,24.4,23.8,24.4c7.9,0,15.3-4,19.7-10.7l-6.3-5
		C264.8,82.3,259.8,85.1,254.3,85.1z"/>
	<path class="st0" d="M208.7,45.6h-12.1l-14.6,47h8.7l2.1-6.7h19.7l2.1,6.7h8.7L208.7,45.6z M195.2,78.1l7.5-24l7.5,24H195.2z"/>
	<polygon class="st0" points="852.9,45.6 816.3,45.6 816.3,53.9 830.5,53.9 830.5,92.6 830.5,92.6 838.7,92.6 838.7,92.6 
		838.7,53.9 852.9,53.9 	"/>
	<path class="st0" d="M463.2,45.5h-15.5l0,0l0,0v47.1l0,0h15.5c13,0,23.5-10.5,23.5-23.5S476.2,45.5,463.2,45.5z M478.4,69.1
		c0,8.2-6.7,14.9-14.9,14.9h-7.6V54.2h7.6C471.8,54.2,478.4,60.8,478.4,69.1L478.4,69.1z"/>
	<path class="st0" d="M708,45.6L708,45.6h-28.8V54h20.5v18.9c0,6.6-3.3,12.2-11.8,12.2c-7.8,0-12.3-6.2-12.3-6.2l-5.7,5.6
		c0,0,6.1,8.9,18,8.9c12,0,20.2-8.2,20.2-19.4v-0.9l0,0l0,0V45.6L708,45.6L708,45.6z"/>
	<path class="st0" d="M307.1,85.1c-8.6,0-15.1-6.9-15.1-16s6.5-16,15.1-16c4.9,0,9.6,2.3,12.6,6.3l5.8-5.6
		c-4.5-5.7-11.2-8.9-18.4-8.9c-13.1,0-23.8,10.9-23.8,24.4s10.7,24.4,23.8,24.4c7.9,0,15.3-4,19.7-10.7l-6.3-5
		C317.6,82.3,312.6,85.1,307.1,85.1z"/>
	<path class="st0" d="M359.9,44.7c-13.1,0-23.7,10.9-23.7,24.4s10.6,24.4,23.7,24.4c13.1,0,23.7-10.9,23.7-24.4S373,44.7,359.9,44.7
		z M359.9,85c-8.4,0-15.2-7.2-15.2-16s6.8-16,15.2-16s15.2,7.2,15.2,16S368.3,85,359.9,85z"/>
	<path class="st0" d="M639.5,44.7c-13.1,0-23.7,10.9-23.7,24.4s10.6,24.4,23.7,24.4c13.1,0,23.7-10.9,23.7-24.4
		S652.6,44.7,639.5,44.7z M639.5,85.1c-8.4,0-15.2-7.2-15.2-16s6.8-16,15.2-16s15.2,7.2,15.2,16S647.9,85.1,639.5,85.1z"/>
	<path class="st0" d="M605.5,61.7c0-8.9-7.2-16.1-16.1-16.1H568v47h8.3V77.7h12.5l6.9,14.9h9.5l-7.9-16.9
		C602.2,72.9,605.5,67.7,605.5,61.7z M589.4,69.1h-13.2V54.2h13.2c4.1,0,7.5,3.3,7.5,7.5C596.8,65.8,593.5,69.1,589.4,69.1z"/>
	<polygon class="st0" points="755.4,53.9 755.4,45.6 722.2,45.6 722.2,92.6 755.4,92.6 755.4,84.2 730.5,84.2 730.5,73.3 
		748.9,73.3 748.9,64.9 730.5,64.9 730.5,53.9 	"/>
	<path class="st0" d="M789.2,85.1c-8.6,0-15.1-6.9-15.1-16s6.5-16,15.1-16c4.9,0,9.6,2.3,12.6,6.3l5.8-5.6
		c-4.5-5.7-11.2-8.9-18.4-8.9c-13.1,0-23.8,10.9-23.8,24.4s10.7,24.4,23.8,24.4c7.9,0,15.3-4,19.7-10.7l-6.3-5
		C799.7,82.4,794.7,85.1,789.2,85.1z"/>
</g>
<path class="st0" d="M88.1,135.8h48L92.3,0h-48l11.6,36.1H32.4L0,135.8h48l19.5-62.3h0.3L88.1,135.8z M85.8,9l38,117.8H94.7L56.7,9
	C56.7,9,85.8,9,85.8,9z M65.1,64.5H47.3l-6.4-19.4h18L65.1,64.5z M41.5,126.8h-29l22.8-70.1l5.6,16.8h17.4L41.5,126.8z"/>
</svg>
